<svg width="16" height="16" viewBox="0 0 16 16" fill="none" xmlns="http://www.w3.org/2000/svg">
<path d="M11.3333 8C11.3333 8.118 11.3019 8.23387 11.2424 8.33576C11.1829 8.43766 11.0974 8.52194 10.9947 8.58L7.49333 10.5653C7.34105 10.6517 7.16876 10.6966 6.9937 10.6955C6.81863 10.6944 6.64693 10.6473 6.49574 10.559C6.34456 10.4708 6.2192 10.3443 6.13221 10.1924C6.04521 10.0405 5.99962 9.8684 6 9.69333V6.30533C6.00009 6.13049 6.04602 5.95873 6.13321 5.80717C6.22039 5.65562 6.34579 5.52958 6.4969 5.44161C6.648 5.35365 6.81953 5.30684 6.99437 5.30586C7.16921 5.30487 7.34125 5.34974 7.49333 5.436L10.9947 7.42C11.0974 7.47806 11.1829 7.56234 11.2424 7.66424C11.3019 7.76614 11.3333 7.882 11.3333 8ZM8 0C6.94943 -1.56548e-08 5.90914 0.206926 4.93853 0.608964C3.96793 1.011 3.08601 1.60028 2.34315 2.34315C1.60028 3.08601 1.011 3.96793 0.608964 4.93853C0.206926 5.90914 0 6.94943 0 8C0 9.05058 0.206926 10.0909 0.608964 11.0615C1.011 12.0321 1.60028 12.914 2.34315 13.6569C3.08601 14.3997 3.96793 14.989 4.93853 15.391C5.90914 15.7931 6.94943 16 8 16C10.1217 16 12.1566 15.1571 13.6569 13.6569C15.1571 12.1566 16 10.1217 16 8C16 5.87827 15.1571 3.84344 13.6569 2.34315C12.1566 0.842855 10.1217 3.16163e-08 8 0ZM1.33333 8C1.33333 6.23189 2.03571 4.5362 3.28595 3.28595C4.5362 2.03571 6.23189 1.33333 8 1.33333C9.76811 1.33333 11.4638 2.03571 12.714 3.28595C13.9643 4.5362 14.6667 6.23189 14.6667 8C14.6667 9.76811 13.9643 11.4638 12.714 12.714C11.4638 13.9643 9.76811 14.6667 8 14.6667C6.23189 14.6667 4.5362 13.9643 3.28595 12.714C2.03571 11.4638 1.33333 9.76811 1.33333 8Z" fill="#DD3679"/>
</svg>
