<svg width="391" height="151" viewBox="0 0 391 151" fill="none" xmlns="http://www.w3.org/2000/svg">
<rect x="1" y="1" width="389" height="149" rx="24" fill="#507091" fill-opacity="0.39" stroke="#575A68" stroke-width="2"/>
<g opacity="0.75">
<mask id="mask0" style="mask-type:alpha" maskUnits="userSpaceOnUse" x="0" y="0" width="391" height="151">
<rect x="1" y="1" width="389" height="149" rx="24" fill="#C4C4C4" stroke="#575A68" stroke-width="2"/>
</mask>
<g mask="url(#mask0)">
<g opacity="0.59">
<path d="M319.962 79.3619C331.488 103.208 322.792 122.217 322.792 122.217L334.553 123.258L342.242 123.941C351.063 86.0425 315.478 60.5314 315.235 60.353C333.524 83.5084 330.326 106.315 330.326 106.315C330.584 94.8261 320.123 79.5997 319.962 79.3619Z" fill="white"/>
<path d="M334.553 123.258L342.242 123.941C351.063 86.0425 315.478 60.5314 315.235 60.353C315.412 60.5537 338.721 86.466 339 104.197C339.162 114.459 336.685 120.218 334.553 123.258Z" fill="#E1E1E1"/>
<path d="M234.242 132.855C235.738 132.857 237.226 133.074 238.659 133.502C239.786 130.914 241.466 128.603 243.58 126.729C245.695 124.855 248.193 123.464 250.902 122.651L251.244 122.547L251.446 122.487C253.096 122.053 254.795 121.833 256.502 121.834C257.464 121.831 258.425 121.901 259.377 122.042C260.364 120.035 261.896 118.345 263.799 117.164C265.701 115.982 267.897 115.356 270.138 115.357C270.784 115.356 271.429 115.408 272.067 115.513C275.046 116 277.73 117.592 279.581 119.969C281.195 119.575 282.85 119.375 284.511 119.375H285.159C287.23 116.578 289.975 114.348 293.14 112.892C296.305 111.436 299.788 110.8 303.265 111.045C306.742 111.289 310.101 112.406 313.03 114.29C315.959 116.175 318.364 118.767 320.02 121.826C321.316 121.129 322.685 120.573 324.101 120.17C324.907 119.933 325.728 119.75 326.559 119.62C330.014 119.065 333.555 119.39 336.851 120.564C337.372 120.749 337.886 120.957 338.385 121.187C339.79 118.299 341.85 115.777 344.402 113.82C345.167 113.228 345.974 112.692 346.815 112.215V112.119C346.817 111.322 346.865 110.526 346.957 109.735C347.094 108.526 347.343 107.332 347.702 106.17C347.702 106.118 347.702 106.058 347.754 105.999C348.915 102.264 351.118 98.9365 354.105 96.4036C357.091 93.8707 360.739 92.2374 364.622 91.6943C367.406 91.3055 370.241 91.4823 372.955 92.2142C374.075 92.5166 375.166 92.9142 376.217 93.4025C378.194 91.3461 380.731 89.9107 383.515 89.273C383.203 88.7457 382.912 88.2035 382.652 87.6465C382.518 87.3643 382.391 87.082 382.272 86.7998C382.197 86.6067 382.115 86.4136 382.048 86.2205C381.981 86.0274 381.832 85.6337 381.743 85.3366C381.683 85.151 381.624 84.9727 381.572 84.7796C380.553 81.181 380.636 77.361 381.81 73.8097C382.113 72.8947 382.489 72.0055 382.935 71.1508C382.973 71.0637 383.018 70.9793 383.069 70.8983L383.396 70.3041L383.575 70.0145C383.694 69.8213 383.813 69.6282 383.94 69.4426C384.621 68.4001 385.407 67.4296 386.286 66.546C386.509 66.3232 386.74 66.1003 386.971 65.8924C385.849 64.2229 385.253 62.2574 385.258 60.2478C385.259 59.8305 385.286 59.4138 385.34 59H388.058C388.842 59.0098 389.59 59.3271 390.141 59.8832C390.691 60.4393 391 61.1893 391 61.9709V148.029C391 148.811 390.691 149.561 390.141 150.117C389.59 150.673 388.842 150.99 388.058 151H222.081C221.387 150.994 220.718 150.746 220.187 150.3C219.657 149.854 219.3 149.237 219.176 148.556V146.098C219.642 142.441 221.429 139.078 224.203 136.64C226.976 134.202 230.545 132.857 234.242 132.855Z" fill="white"/>
<path d="M234.242 132.855C235.738 132.857 237.226 133.074 238.659 133.502C239.786 130.914 241.466 128.603 243.58 126.729C245.695 124.855 248.193 123.464 250.902 122.651C245.234 124.433 245.428 131.392 250.701 133.925C251.921 134.491 253.243 134.804 254.588 134.846C263.577 135.225 265.014 131.875 265.014 131.875C265.746 134.308 267.184 136.47 269.147 138.088C271.11 139.706 273.51 140.707 276.044 140.966C279.24 141.362 282.485 141.05 285.547 140.052C288.037 139.291 290.326 137.987 292.249 136.235C295.049 138.647 298.322 140.45 301.86 141.531C305.398 142.611 309.122 142.945 312.796 142.511C313.541 142.422 314.286 142.303 315.03 142.184C326.886 140.038 328.227 133.762 328.227 133.762C330.744 138.092 335.86 140.988 344.082 139.28C352.304 137.572 353.592 132.246 353.592 132.246C357.204 138.092 368.085 139.087 371.324 132.246C374.564 125.406 371.324 120.452 371.324 120.452C376.664 120.831 382.093 111.852 378.369 102.582C377.659 100.75 376.559 99.0937 375.145 97.7268C373.731 96.3599 372.036 95.3153 370.177 94.6651C364.465 92.541 358.262 93.707 358.165 93.7293C360.22 92.6768 362.438 91.9763 364.726 91.6571C367.511 91.2683 370.345 91.4452 373.06 92.177C374.179 92.4794 375.27 92.877 376.321 93.3654C378.299 91.3089 380.835 89.8736 383.62 89.2359C383.307 88.7086 383.017 88.1664 382.756 87.6094C382.622 87.3271 382.495 87.0449 382.376 86.7627C382.302 86.5696 382.22 86.3764 382.153 86.1833C382.086 85.9902 381.937 85.5966 381.847 85.2995C381.788 85.1138 381.728 84.9356 381.676 84.7425C380.658 81.1439 380.741 77.3238 381.914 73.7726C382.185 72.8733 382.526 71.9967 382.935 71.1508C382.973 71.0637 383.018 70.9793 383.069 70.8983C383.173 70.6978 383.285 70.5046 383.396 70.3041L383.575 70.0145C383.694 69.8213 383.813 69.6282 383.94 69.4426C384.621 68.4001 385.407 67.4296 386.286 66.546L386.971 65.885C385.851 64.2175 385.254 62.2549 385.258 60.2478C385.259 59.8305 385.286 59.4138 385.34 59H388.058C388.842 59.0098 389.59 59.3271 390.141 59.8832C390.691 60.4393 391 61.1893 391 61.9709V148.029C391 148.811 390.691 149.561 390.141 150.117C389.59 150.673 388.842 150.99 388.058 151H222.081C221.387 150.994 220.718 150.746 220.187 150.3C219.657 149.854 219.3 149.237 219.176 148.556V146.098C219.642 142.441 221.429 139.078 224.203 136.64C226.976 134.202 230.545 132.857 234.242 132.855Z" fill="#E1E1E1"/>
<path d="M358.86 81.0596C358.603 81.6466 358.492 82.3153 358.54 82.9812C358.588 83.6471 358.793 84.2803 359.129 84.8007C359.465 85.3211 359.917 85.7053 360.428 85.9049C360.939 86.1044 361.485 86.1102 361.999 85.9216C362.512 85.733 362.969 85.3585 363.312 84.8453C363.655 84.3322 363.869 83.7035 363.926 83.0387C363.983 82.3739 363.881 81.7029 363.633 81.1105C363.385 80.5181 363.002 80.0309 362.532 79.7106C362.22 79.4966 361.878 79.3618 361.524 79.3139C361.17 79.2659 360.813 79.3058 360.471 79.4311C360.13 79.5565 359.812 79.7649 359.535 80.0444C359.259 80.3238 359.029 80.6689 358.86 81.0596Z" fill="#E1E1E1"/>
<path d="M358.773 80.7111C358.583 81.1816 358.501 81.7168 358.538 82.2493C358.575 82.7818 358.73 83.2877 358.982 83.7032C359.234 84.1187 359.573 84.4251 359.956 84.5839C360.339 84.7427 360.748 84.7466 361.133 84.5953C361.517 84.444 361.86 84.1442 362.117 83.7336C362.373 83.3231 362.533 82.8203 362.576 82.2885C362.619 81.7568 362.543 81.22 362.358 80.7459C362.172 80.2718 361.886 79.8815 361.534 79.6244C361.06 79.2803 360.503 79.2014 359.985 79.4052C359.468 79.609 359.032 80.0787 358.773 80.7111Z" fill="white"/>
<path d="M300.607 104.692C300.412 105.044 300.326 105.445 300.36 105.845C300.394 106.246 300.546 106.627 300.796 106.942C301.047 107.256 301.384 107.488 301.767 107.61C302.15 107.732 302.56 107.738 302.946 107.626C303.332 107.514 303.676 107.291 303.935 106.983C304.193 106.676 304.355 106.299 304.399 105.899C304.444 105.5 304.369 105.096 304.184 104.74C303.999 104.383 303.712 104.089 303.36 103.895C302.889 103.639 302.335 103.578 301.82 103.727C301.304 103.876 300.868 104.223 300.607 104.692Z" fill="#E1E1E1"/>
<path d="M300.518 104.351C300.39 104.586 300.334 104.854 300.358 105.121C300.383 105.388 300.485 105.641 300.653 105.85C300.822 106.058 301.048 106.212 301.303 106.291C301.559 106.371 301.832 106.373 302.088 106.298C302.345 106.222 302.574 106.072 302.745 105.866C302.916 105.66 303.023 105.408 303.051 105.142C303.08 104.876 303.028 104.607 302.904 104.37C302.78 104.133 302.588 103.938 302.353 103.809C302.038 103.64 301.668 103.601 301.324 103.703C300.98 103.804 300.691 104.037 300.518 104.351Z" fill="white"/>
<path d="M338.316 75.9481C338.253 76.1834 338.226 76.451 338.238 76.717C338.251 76.9829 338.303 77.2354 338.387 77.4426C338.471 77.6498 338.585 77.8024 338.712 77.8811C338.84 77.9599 338.976 77.9613 339.104 77.8851C339.232 77.809 339.346 77.6587 339.432 77.4533C339.517 77.2478 339.57 76.9964 339.584 76.7307C339.598 76.465 339.573 76.1969 339.511 75.9603C339.449 75.7236 339.353 75.529 339.236 75.4009C339.158 75.3154 339.072 75.2617 338.983 75.2429C338.894 75.2241 338.804 75.2406 338.719 75.2915C338.633 75.3423 338.554 75.4265 338.485 75.5392C338.415 75.6519 338.358 75.7908 338.316 75.9481Z" fill="#E1E1E1"/>
<path d="M338.372 75.6364C338.315 75.7033 338.274 75.7812 338.253 75.8644C338.231 75.9477 338.229 76.0344 338.248 76.1183C338.266 76.2023 338.303 76.2816 338.357 76.3505C338.412 76.4194 338.481 76.4763 338.561 76.5172C338.642 76.5581 338.73 76.582 338.821 76.5872C338.912 76.5924 339.004 76.5788 339.088 76.5474C339.173 76.5159 339.25 76.4673 339.313 76.4051C339.375 76.3429 339.423 76.2685 339.452 76.1872C339.508 76.1203 339.549 76.0425 339.571 75.9592C339.592 75.8759 339.594 75.7893 339.576 75.7053C339.558 75.6213 339.52 75.5421 339.466 75.4732C339.412 75.4043 339.342 75.3474 339.262 75.3064C339.182 75.2655 339.093 75.2416 339.002 75.2364C338.911 75.2312 338.82 75.2448 338.735 75.2763C338.65 75.3077 338.573 75.3563 338.511 75.4185C338.448 75.4807 338.401 75.5551 338.372 75.6364Z" fill="white"/>
<path d="M347.846 102.294L346.353 85.3919L349.066 93.2383L347.678 65.7646L350.412 98.6044L347.783 92.7943L347.846 102.294Z" fill="white"/>
<path d="M322 113.118L310.219 101.578L317.307 105.541L299 86.0588L321.749 108.6L315.999 106.095L322 113.118Z" fill="white"/>
<path d="M297.498 94.4694C303.884 97.2388 308.256 98.2683 319.822 106.941L319.9 107C319.881 106.975 319.863 106.949 319.848 106.922C312.126 94.691 311.455 90.2535 309.207 83.6657C306.959 77.078 299.589 73.24 299.589 73.24L293.341 78.1857L287.906 84.0502C287.906 84.0502 291.079 91.6871 297.498 94.4694Z" fill="#F68E37"/>
<path d="M311.168 97.5387C309.67 94.3295 308.409 91.0148 307.396 87.6212C307.083 86.6307 306.744 85.6012 306.392 84.5456C305.206 81.0725 300.384 76.7263 298.41 75.3774L294.442 79.0395L290.363 82.8058C291.568 84.8844 295.224 90.2732 298.599 91.7394C299.622 92.1825 300.619 92.5865 301.583 92.9839C304.885 94.2672 308.088 95.7895 311.168 97.5387Z" fill="#F1BC03"/>
<path d="M306.21 92.1628C305.558 90.6185 304.998 89.1654 304.444 87.7318C304.014 86.6371 303.577 85.5033 303.102 84.3435C302.216 82.1671 299.192 78.9677 296.853 76.8369L291.888 81.3982C293.901 84.2066 296.683 87.4386 298.651 88.4356C299.772 88.9959 300.858 89.5324 301.909 90.045C303.317 90.7162 304.718 91.3939 306.21 92.1628Z" fill="#FAF8A8"/>
<path d="M292.741 55.8943C294.289 55.8218 295.837 56.0429 297.302 56.5459C304.946 59.0481 312.622 67.4734 312.622 67.4734C312.733 67.2974 317.352 59.7192 312.185 49.6258C309.468 44.3282 304.77 41.1092 300.867 39.2456C300.568 39.0924 300.228 39.0357 299.896 39.0836C299.563 39.1314 299.253 39.2814 299.01 39.5128C298.839 39.6655 298.701 39.8509 298.604 40.058C298.506 40.2651 298.452 40.4896 298.443 40.7183C298.434 40.9376 298.47 41.1563 298.549 41.3613C298.627 41.5662 298.746 41.7531 298.899 41.9107L287.593 38.2226L279.123 35.4663C282.98 45.26 292.741 55.8943 292.741 55.8943Z" fill="#DC3645"/>
<path d="M312.628 67.4928C312.739 67.3168 317.359 59.7386 312.192 49.6452C309.474 44.3476 304.776 41.1286 300.873 39.265C300.574 39.1117 300.235 39.0551 299.902 39.103C299.569 39.1508 299.26 39.3008 299.016 39.5322C298.846 39.6849 298.707 39.8703 298.61 40.0774C298.513 40.2844 298.458 40.509 298.449 40.7377C298.586 41.1221 298.736 41.5196 298.905 41.9301C298.905 41.9301 307.129 46.4914 310.699 54.7147C314.218 62.8077 312.674 67.3559 312.628 67.4928Z" fill="#EF4C65"/>
<path d="M292.741 55.8942C294.289 55.8217 295.837 56.0428 297.302 56.5458C295.536 49.5736 291.399 43.0705 287.593 38.216L279.122 35.4597C282.98 45.2599 292.741 55.8942 292.741 55.8942Z" fill="#BE292C"/>
<path d="M271.108 75.8269C270.917 77.3681 271.021 78.9314 271.414 80.4338C273.297 88.2531 281.077 96.5807 281.077 96.5807C280.888 96.6784 272.965 100.673 263.321 94.7105C258.258 91.5763 255.43 86.6371 253.879 82.5971C253.751 82.2862 253.723 81.9433 253.797 81.6155C253.872 81.2876 254.046 80.9909 254.296 80.7661C254.636 80.4525 255.085 80.2841 255.547 80.2969C255.767 80.3074 255.982 80.3618 256.18 80.4569C256.378 80.552 256.555 80.686 256.701 80.8508L253.931 69.2847L251.859 60.6313C261.334 65.2382 271.108 75.8269 271.108 75.8269Z" fill="#DC3645"/>
<path d="M281.103 96.5808C280.914 96.6785 272.991 100.673 263.347 94.7107C258.284 91.5764 255.456 86.6372 253.905 82.5972C253.777 82.2863 253.749 81.9434 253.823 81.6156C253.898 81.2878 254.072 80.9911 254.322 80.7662C254.662 80.4526 255.111 80.2843 255.573 80.2971C255.945 80.4665 256.329 80.6489 256.727 80.8509C256.727 80.8509 260.636 89.4131 268.521 93.6355C276.32 97.7863 280.96 96.6199 281.103 96.5808Z" fill="#EF4C65"/>
<path d="M271.108 75.8269C270.917 77.3681 271.021 78.9314 271.414 80.4338C264.604 78.114 258.46 73.4681 253.925 69.2847L251.852 60.6313C261.333 65.2382 271.108 75.8269 271.108 75.8269Z" fill="#BE292C"/>
<path d="M252.719 61.4068C254.818 63.7564 257.041 65.9924 259.378 68.1054C261.706 70.1229 264.207 71.9305 266.852 73.5072L267.146 73.6767L272.183 76.2831L277.741 79.1762L288.349 84.6954L300.28 73.7092L299.752 72.4581L295.634 62.684L293.191 56.9042C290.086 49.526 285.755 42.7269 280.38 36.7956L279.911 36.2873C273.672 29.4066 266.253 23.6976 258.004 19.4302C257.515 19.1825 257.033 18.9414 256.557 18.7134C255.41 18.166 254.283 17.6708 253.188 17.2212C252.719 17.0257 252.256 16.8433 251.794 16.6673L251.097 16.4002C248.465 15.42 245.767 14.6274 243.023 14.0283C240.794 13.5362 238.535 13.1987 236.259 13.0183C235.842 12.9714 235.419 13.0148 235.02 13.1457C234.62 13.2765 234.254 13.4916 233.945 13.7765C233.636 14.0613 233.391 14.4093 233.229 14.7968C233.066 15.1842 232.988 15.6022 233.001 16.0222C233.025 21.1159 233.755 26.1816 235.171 31.0744L235.399 31.8694C235.543 32.3385 235.686 32.8142 235.842 33.2964C236.203 34.4259 236.611 35.5814 237.067 36.763C237.25 37.2452 237.439 37.7274 237.641 38.2226C241.246 46.7869 246.352 54.6383 252.719 61.4068Z" fill="white"/>
<path d="M282.836 81.8284L288.349 84.6955C289.001 84.3632 289.62 84.0439 290.232 83.6464C290.745 83.3423 291.247 83.023 291.737 82.6885C293.459 81.5436 295.052 80.2152 296.488 78.7267C297.951 77.2074 299.224 75.5161 300.28 73.6898L297.823 67.9622C296.392 70.1971 294.746 72.2877 292.91 74.2046C290.759 76.4331 288.353 78.4014 285.743 80.0691C285.306 80.3493 284.863 80.6294 284.407 80.8966C283.951 81.1638 283.364 81.5352 282.836 81.8284Z" fill="#182632"/>
<path d="M296.488 78.7462C297.951 77.2269 299.224 75.5355 300.28 73.7092L297.823 67.9621L295.608 62.7492L293.164 56.9694C290.06 49.5912 285.729 42.7921 280.354 36.8607L279.885 36.3525C269.746 25.3663 259.424 19.5279 251.07 16.4328C248.448 15.4427 245.759 14.6392 243.023 14.0283C242.573 16.1591 241.655 16.3741 244.209 20.0166C244.209 20.0166 268.09 27.3277 279.455 44.6344C289.88 60.4816 282.791 61.2244 282.791 61.2244L292.936 74.2045L296.488 78.7462Z" fill="#E1E1E1"/>
<path d="M299.055 85.6598C299.228 85.7419 299.422 85.7701 299.612 85.7409C299.801 85.7116 299.977 85.6262 300.118 85.4957C300.258 85.3651 300.356 85.1955 300.399 85.0087C300.442 84.8219 300.428 84.6265 300.359 84.4478C294.396 69.3435 274.679 53.6723 266.403 47.5798C266.225 47.4461 266.005 47.3793 265.782 47.3913C265.559 47.4032 265.348 47.4929 265.185 47.6449C265.019 47.7938 264.911 47.9968 264.881 48.2177C264.852 48.4386 264.901 48.6629 265.022 48.8504C270.456 57.595 284.472 78.5052 299.055 85.6598Z" fill="#DC3645"/>
<path d="M265.191 47.6449L300.124 85.5034C300.267 85.3729 300.366 85.2019 300.409 85.0133C300.452 84.8247 300.437 84.6274 300.365 84.4478C294.403 69.3435 274.685 53.6723 266.41 47.5798C266.231 47.4461 266.011 47.3793 265.788 47.3913C265.566 47.4032 265.354 47.4929 265.191 47.6449Z" fill="#BE292C"/>
<path d="M249.324 43.8394C250.543 45.1595 252.125 46.0886 253.872 46.5093C255.618 46.93 257.45 46.8233 259.136 46.2028C260.822 45.5823 262.286 44.4759 263.343 43.0233C264.4 41.5708 265.003 39.8374 265.075 38.0424C265.147 36.2474 264.685 34.4713 263.748 32.9388C262.81 31.4063 261.44 30.1861 259.809 29.4326C258.178 28.6791 256.36 28.4261 254.586 28.7056C252.811 28.985 251.159 29.7845 249.839 31.0027C248.962 31.8117 248.253 32.7855 247.753 33.8685C247.253 34.9515 246.97 36.1224 246.923 37.3144C246.875 38.5065 247.062 39.6962 247.474 40.8158C247.886 41.9354 248.515 42.9628 249.324 43.8394Z" fill="#182632"/>
<path d="M250.719 42.5559L250.784 42.621C252.069 43.9838 253.837 44.7892 255.709 44.8647C257.581 44.9402 259.408 44.2799 260.799 43.025L260.871 42.9599C261.564 42.3202 262.124 41.5503 262.52 40.6941C262.915 39.8379 263.139 38.9122 263.176 37.9698C263.214 37.0274 263.066 36.0868 262.74 35.2016C262.415 34.3165 261.918 33.5042 261.278 32.811C260.638 32.1179 259.869 31.5576 259.012 31.162C258.156 30.7664 257.23 30.5433 256.288 30.5055C255.346 30.4677 254.405 30.6159 253.52 30.9416C252.635 31.2673 251.822 31.7642 251.129 32.4038C250.408 33.0622 249.831 33.8632 249.435 34.7561C249.029 35.6541 248.807 36.6247 248.783 37.6102C248.786 38.7699 249.067 39.912 249.605 40.9399C249.903 41.5254 250.278 42.0688 250.719 42.5559Z" fill="#33C8CB"/>
<path opacity="0.1" d="M249.604 40.9397C249.083 39.9079 248.817 38.7659 248.829 37.61C248.852 36.6245 249.074 35.6539 249.481 34.7559C249.876 33.863 250.453 33.062 251.175 32.4036C251.867 31.7615 252.679 31.2625 253.565 30.9351C254.45 30.6078 255.391 30.4586 256.335 30.4961C257.278 30.5337 258.205 30.7572 259.061 31.1539C259.918 31.5505 260.688 32.1125 261.327 32.8076C261.457 32.9575 261.588 33.1008 261.705 33.2572C260.867 32.4771 259.855 31.909 258.753 31.6003C257.651 31.2916 256.49 31.2514 255.37 31.483C254.249 31.7145 253.199 32.2112 252.31 32.9314C251.42 33.6516 250.716 34.5744 250.256 35.6226C249.861 36.5229 249.65 37.4934 249.637 38.4766C249.612 40.1063 250.15 41.6946 251.162 42.9727C251.038 42.8619 250.921 42.7446 250.803 42.6208L250.738 42.5557C250.29 42.0698 249.909 41.5263 249.604 40.9397Z" fill="black"/>
<path d="M251.129 35.7466C251.129 35.7466 250.979 39.8517 253.886 41.7088C257.072 43.7483 259.75 42.0933 261.562 39.1675C261.562 39.1675 261.327 42.4973 257.43 43.7288C253.364 45.0711 249.5 40.7444 251.129 35.7466Z" fill="#00EEED"/>
<path d="M235.178 31.0809C241.296 27.1481 246.683 22.1804 251.097 16.4001C246.332 14.5893 241.338 13.451 236.26 13.0183C235.756 12.9687 235.247 13.0479 234.782 13.2485C234.317 13.4491 233.911 13.7645 233.601 14.1651C233.211 14.7051 233.003 15.3558 233.008 16.0222C233.031 21.118 233.761 26.1859 235.178 31.0809Z" fill="#DC3645"/>
<path d="M234.37 19.8211C234.318 19.2151 234.22 18.8046 234.116 17.8663C233.946 16.4066 234.22 15.8006 235.21 15.8137C237.009 15.8137 238.885 23.242 236.846 25.9853C235.269 28.1161 234.617 22.4471 234.37 19.8211Z" fill="#EF4C65"/>
<path opacity="0.2" d="M235.178 31.0809C241.296 27.1481 246.683 22.1804 251.097 16.4001C246.332 14.5893 241.338 13.451 236.26 13.0183C235.756 12.9687 235.247 13.0479 234.782 13.2485C234.317 13.4491 233.911 13.7645 233.601 14.1651C234.253 14.1651 238.814 14.1651 241.283 16.8693C243.975 19.7885 242.567 25.8028 235.178 31.0809Z" fill="black"/>
</g>
</g>
</g>
</svg>
